<svg xmlns="http://www.w3.org/2000/svg" xmlns:xlink="http://www.w3.org/1999/xlink" width="1500" zoomAndPan="magnify" viewBox="0 0 1125 1124.99995" height="1500" preserveAspectRatio="xMidYMid meet" version="1.0"><rect x="-112.5" width="1350" fill="#ffffff" y="-112.499995" height="1349.99994" fill-opacity="1"/><rect x="-112.5" width="1350" fill="#000000" y="-112.499995" height="1349.99994" fill-opacity="1"/><path fill="#ffdf00" d="M 932.925781 435.96875 L 899.542969 456.96875 C 915.695312 495.195312 927.542969 537.191406 927.542969 588.339844 C 927.542969 697.101562 875.316406 784.324219 818.242188 845.164062 C 780.554688 885.007812 740.175781 911.390625 700.871094 937.773438 L 701.40625 938.308594 C 750.941406 923.234375 801.554688 894.160156 837.625 860.242188 C 899.542969 801.554688 956.617188 716.484375 957.15625 572.726562 C 956.617188 520.5 946.925781 481.734375 932.925781 435.96875 Z M 932.925781 435.96875 " fill-opacity="1" fill-rule="nonzero"/><path fill="#ffdf00" d="M 199.066406 593.1875 C 199.066406 546.34375 210.375 504.347656 225.988281 456.96875 L 193.683594 434.355469 C 177.53125 474.199219 168.917969 520.5 168.917969 571.113281 C 167.839844 653.488281 188.839844 727.789062 235.679688 793.476562 C 278.214844 853.777344 337.980469 905.46875 421.972656 938.308594 L 421.972656 937.773438 C 341.210938 889.851562 286.292969 838.164062 246.988281 769.785156 C 231.910156 743.40625 218.988281 711.636719 209.835938 679.871094 C 202.296875 651.875 199.066406 622.261719 199.066406 593.1875 Z M 199.066406 593.1875 " fill-opacity="1" fill-rule="nonzero"/><path fill="#ffdf00" d="M 565.191406 306.210938 C 453.199219 306.210938 330.980469 393.433594 330.980469 552.804688 L 330.980469 566.265625 C 336.902344 564.113281 341.746094 562.496094 349.285156 562.496094 C 370.285156 562.496094 389.667969 577.035156 406.894531 595.339844 C 435.433594 626.570312 463.96875 678.257812 507.039062 740.710938 C 467.199219 705.175781 397.203125 589.417969 346.59375 575.417969 C 342.285156 573.804688 336.363281 572.1875 329.363281 572.1875 C 327.75 586.726562 326.132812 600.726562 326.132812 614.183594 C 326.132812 669.101562 340.671875 732.636719 390.742188 766.019531 C 408.511719 776.785156 426.816406 785.402344 441.894531 798.859375 C 465.582031 819.859375 474.734375 851.625 463.429688 864.007812 C 449.429688 875.855469 414.433594 853.242188 398.28125 838.164062 C 371.898438 814.476562 353.054688 788.632812 339.054688 769.785156 L 339.59375 770.324219 C 344.976562 798.859375 364.359375 832.242188 388.050781 855.933594 C 426.816406 894.160156 477.964844 927.003906 564.652344 928.082031 C 612.570312 928.082031 653.488281 917.851562 684.179688 901.699219 C 728.867188 878.007812 773.015625 836.011719 788.09375 780.015625 C 789.167969 776.785156 788.632812 776.246094 789.167969 770.324219 C 775.710938 794.015625 753.097656 820.398438 729.945312 839.78125 C 713.253906 854.855469 678.257812 875.855469 666.949219 864.007812 C 652.949219 850.011719 666.949219 814.476562 693.871094 794.015625 C 708.40625 782.171875 724.558594 774.09375 737.480469 767.09375 C 781.09375 745.019531 801.554688 691.714844 801.554688 616.339844 C 801.554688 603.417969 801.015625 591.035156 798.859375 572.1875 C 748.25 575.417969 688.488281 664.257812 620.644531 741.25 C 664.796875 683.640625 701.410156 614.722656 734.25 586.726562 C 748.25 574.34375 763.863281 562.496094 780.015625 562.496094 C 786.476562 562.496094 791.863281 563.035156 797.785156 566.265625 L 797.785156 552.804688 C 797.785156 409.050781 688.488281 306.210938 565.191406 306.210938 Z M 452.121094 759.558594 C 428.433594 755.789062 398.28125 753.632812 376.207031 728.867188 C 349.285156 699.253906 337.980469 643.257812 341.210938 605.570312 C 373.515625 610.417969 403.125 641.105469 426.816406 666.949219 C 448.355469 691.714844 479.582031 733.714844 497.347656 782.171875 C 483.890625 769.785156 479.042969 764.402344 452.121094 759.558594 Z M 745.019531 738.558594 C 718.636719 754.710938 700.332031 753.632812 680.949219 758.480469 C 662.105469 762.25 645.414062 769.25 632.492188 782.707031 C 647.566406 745.019531 676.640625 704.636719 700.332031 675.027344 C 716.484375 655.105469 761.171875 610.417969 788.09375 606.109375 L 788.632812 606.109375 C 791.324219 642.722656 778.402344 716.484375 745.019531 738.558594 Z M 745.019531 738.558594 " fill-opacity="1" fill-rule="nonzero"/><path fill="#ffdf00" d="M 431.125 684.71875 C 417.664062 692.253906 398.28125 675.027344 409.585938 664.257812 C 401.511719 657.257812 384.820312 646.488281 376.207031 643.796875 C 360.054688 681.488281 390.203125 730.484375 427.355469 728.328125 C 439.199219 727.253906 448.890625 720.789062 448.890625 712.714844 C 447.277344 705.714844 433.816406 688.484375 431.125 684.71875 Z M 431.125 684.71875 " fill-opacity="1" fill-rule="nonzero"/><path fill="#ffdf00" d="M 718.636719 664.257812 C 732.636719 672.332031 715.40625 693.871094 697.640625 684.71875 C 693.332031 690.101562 680.949219 704.640625 680.410156 711.101562 C 681.488281 726.175781 707.871094 734.25 729.945312 721.867188 C 751.480469 710.5625 766.554688 676.101562 753.097656 643.796875 C 745.019531 645.414062 727.253906 657.257812 718.636719 664.257812 Z M 718.636719 664.257812 " fill-opacity="1" fill-rule="nonzero"/><path fill="#ffdf00" d="M 197.453125 415.511719 L 217.914062 430.046875 C 225.988281 435.96875 237.296875 436.507812 242.679688 427.894531 L 268.523438 383.742188 L 255.601562 375.128906 L 230.835938 414.972656 C 229.21875 417.664062 226.527344 418.203125 224.375 416.585938 L 206.605469 404.203125 C 203.914062 403.125 202.835938 399.359375 204.992188 397.742188 L 229.757812 358.4375 L 217.375 351.4375 L 192.070312 391.28125 C 186.144531 401.511719 188.839844 409.585938 197.453125 415.511719 Z M 197.453125 415.511719 " fill-opacity="1" fill-rule="nonzero"/><path fill="#ffdf00" d="M 294.367188 360.054688 L 282.523438 311.597656 L 313.210938 321.289062 L 296.519531 336.902344 L 301.90625 351.976562 L 346.59375 314.828125 L 277.136719 292.753906 C 271.753906 291.136719 263.140625 298.136719 264.214844 304.058594 L 280.90625 371.359375 Z M 294.367188 360.054688 " fill-opacity="1" fill-rule="nonzero"/><path fill="#ffdf00" d="M 376.746094 296.519531 L 366.515625 274.984375 L 385.359375 265.292969 L 412.28125 279.828125 L 430.046875 271.214844 L 403.125 257.753906 C 409.585938 252.371094 414.433594 242.679688 409.050781 234.066406 L 406.894531 229.21875 C 401.511719 218.988281 389.667969 218.988281 382.667969 222.21875 L 334.210938 246.988281 L 340.671875 260.445312 L 388.589844 236.21875 C 391.28125 234.601562 393.433594 236.757812 395.050781 239.988281 C 396.128906 242.140625 395.050781 244.292969 393.433594 244.832031 L 345.515625 268.523438 L 363.285156 304.058594 Z M 376.746094 296.519531 " fill-opacity="1" fill-rule="nonzero"/><path fill="#ffdf00" d="M 466.121094 261.523438 L 482.273438 214.683594 L 502.195312 239.449219 L 481.734375 242.679688 L 477.964844 258.832031 L 532.347656 250.21875 L 488.195312 196.914062 C 484.425781 191.53125 470.96875 193.144531 469.351562 201.761719 L 447.277344 266.371094 Z M 466.121094 261.523438 " fill-opacity="1" fill-rule="nonzero"/><path fill="#ffdf00" d="M 611.492188 253.984375 C 621.722656 256.140625 629.261719 248.0625 629.261719 238.910156 C 630.335938 233.527344 629.261719 228.140625 625.492188 225.449219 C 629.800781 222.757812 631.953125 217.375 631.953125 211.988281 L 631.953125 207.144531 C 630.875 199.066406 623.875 192.070312 614.183594 192.070312 L 560.34375 186.144531 L 558.726562 201.222656 L 612.570312 206.605469 C 615.800781 206.605469 616.339844 214.683594 612.570312 215.21875 L 557.113281 210.375 L 554.421875 249.679688 Z M 571.652344 226.527344 L 610.417969 229.757812 C 614.183594 230.835938 614.183594 238.910156 610.417969 239.988281 L 570.574219 236.757812 Z M 571.652344 226.527344 " fill-opacity="1" fill-rule="nonzero"/><path fill="#ffdf00" d="M 664.257812 265.832031 L 703.023438 232.449219 L 707.871094 264.214844 L 686.332031 256.679688 L 676.101562 269.601562 L 727.253906 290.058594 L 716.484375 218.988281 C 715.40625 213.066406 704.640625 211.453125 701.40625 214.683594 L 646.488281 260.445312 Z M 664.257812 265.832031 " fill-opacity="1" fill-rule="nonzero"/><path fill="#ffdf00" d="M 798.859375 277.136719 L 831.164062 299.75 L 839.78125 287.367188 L 797.246094 255.0625 C 789.167969 249.679688 778.402344 250.21875 773.015625 257.753906 L 768.171875 264.214844 C 763.863281 271.214844 764.941406 280.90625 772.480469 286.292969 L 799.9375 307.828125 C 804.246094 311.597656 802.089844 313.210938 799.398438 316.980469 C 798.859375 318.058594 797.246094 318.058594 796.167969 316.980469 L 753.632812 285.753906 L 743.40625 297.597656 L 785.9375 328.824219 C 794.554688 334.75 804.246094 335.824219 810.707031 328.289062 L 815.011719 322.363281 C 820.398438 314.828125 818.78125 303.519531 810.707031 298.136719 L 783.785156 276.597656 C 781.09375 274.984375 781.09375 272.292969 782.707031 270.136719 C 785.9375 264.214844 789.167969 268.523438 798.859375 277.136719 Z M 798.859375 277.136719 " fill-opacity="1" fill-rule="nonzero"/><path fill="#ffdf00" d="M 825.78125 361.667969 L 877.46875 351.976562 L 866.703125 380.511719 L 852.703125 364.359375 L 834.933594 369.207031 L 871.546875 409.585938 L 894.160156 347.132812 C 896.851562 341.210938 890.390625 332.054688 882.855469 333.671875 L 812.320312 349.285156 Z M 825.78125 361.667969 " fill-opacity="1" fill-rule="nonzero"/><path fill="#ffdf00" d="M 931.3125 398.28125 L 880.699219 425.738281 L 880.160156 425.738281 L 880.160156 430.046875 L 888.777344 444.585938 L 938.847656 410.664062 Z M 931.3125 398.28125 " fill-opacity="1" fill-rule="nonzero"/></svg>