<svg xmlns="http://www.w3.org/2000/svg" xmlns:xlink="http://www.w3.org/1999/xlink" width="1500" zoomAndPan="magnify" viewBox="0 0 1125 1124.99995" height="1500" preserveAspectRatio="xMidYMid meet" version="1.0"><path fill="#ffdf00" d="M 1078.5 386.25 L 1032 415.5 C 1054.5 468.75 1071 527.25 1071 598.5 C 1071 750 998.25 871.5 918.75 956.25 C 866.25 1011.75 810 1048.5 755.25 1085.25 L 756 1086 C 825 1065 895.5 1024.5 945.75 977.25 C 1032 895.5 1111.5 777 1112.25 576.75 C 1111.5 504 1098 450 1078.5 386.25 Z M 1078.5 386.25 " fill-opacity="1" fill-rule="nonzero"/><path fill="#ffdf00" d="M 56.25 605.25 C 56.25 540 72 481.5 93.75 415.5 L 48.75 384 C 26.25 439.5 14.25 504 14.25 574.5 C 12.75 689.25 42 792.75 107.25 884.25 C 166.5 968.25 249.75 1040.25 366.75 1086 L 366.75 1085.25 C 254.25 1018.5 177.75 946.5 123 851.25 C 102 814.5 84 770.25 71.25 726 C 60.75 687 56.25 645.75 56.25 605.25 Z M 56.25 605.25 " fill-opacity="1" fill-rule="nonzero"/><path fill="#ffdf00" d="M 566.25 205.5 C 410.25 205.5 240 327 240 549 L 240 567.75 C 248.25 564.75 255 562.5 265.5 562.5 C 294.75 562.5 321.75 582.75 345.75 608.25 C 385.5 651.75 425.25 723.75 485.25 810.75 C 429.75 761.25 332.25 600 261.75 580.5 C 255.75 578.25 247.5 576 237.75 576 C 235.5 596.25 233.25 615.75 233.25 634.5 C 233.25 711 253.5 799.5 323.25 846 C 348 861 373.5 873 394.5 891.75 C 427.5 921 440.25 965.25 424.5 982.5 C 405 999 356.25 967.5 333.75 946.5 C 297 913.5 270.75 877.5 251.25 851.25 L 252 852 C 259.5 891.75 286.5 938.25 319.5 971.25 C 373.5 1024.5 444.75 1070.25 565.5 1071.75 C 632.25 1071.75 689.25 1057.5 732 1035 C 794.25 1002 855.75 943.5 876.75 865.5 C 878.25 861 877.5 860.25 878.25 852 C 859.5 885 828 921.75 795.75 948.75 C 772.5 969.75 723.75 999 708 982.5 C 688.5 963 708 913.5 745.5 885 C 765.75 868.5 788.25 857.25 806.25 847.5 C 867 816.75 895.5 742.5 895.5 637.5 C 895.5 619.5 894.75 602.25 891.75 576 C 821.25 580.5 738 704.25 643.5 811.5 C 705 731.25 756 635.25 801.75 596.25 C 821.25 579 843 562.5 865.5 562.5 C 874.5 562.5 882 563.25 890.25 567.75 L 890.25 549 C 890.25 348.75 738 205.5 566.25 205.5 Z M 408.75 837 C 375.75 831.75 333.75 828.75 303 794.25 C 265.5 753 249.75 675 254.25 622.5 C 299.25 629.25 340.5 672 373.5 708 C 403.5 742.5 447 801 471.75 868.5 C 453 851.25 446.25 843.75 408.75 837 Z M 816.75 807.75 C 780 830.25 754.5 828.75 727.5 835.5 C 701.25 840.75 678 850.5 660 869.25 C 681 816.75 721.5 760.5 754.5 719.25 C 777 691.5 839.25 629.25 876.75 623.25 L 877.5 623.25 C 881.25 674.25 863.25 777 816.75 807.75 Z M 816.75 807.75 " fill-opacity="1" fill-rule="nonzero"/><path fill="#ffdf00" d="M 379.5 732.75 C 360.75 743.25 333.75 719.25 349.5 704.25 C 338.25 694.5 315 679.5 303 675.75 C 280.5 728.25 322.5 796.5 374.25 793.5 C 390.75 792 404.25 783 404.25 771.75 C 402 762 383.25 738 379.5 732.75 Z M 379.5 732.75 " fill-opacity="1" fill-rule="nonzero"/><path fill="#ffdf00" d="M 780 704.25 C 799.5 715.5 775.5 745.5 750.75 732.75 C 744.75 740.25 727.5 760.5 726.75 769.5 C 728.25 790.5 765 801.75 795.75 784.5 C 825.75 768.75 846.75 720.75 828 675.75 C 816.75 678 792 694.5 780 704.25 Z M 780 704.25 " fill-opacity="1" fill-rule="nonzero"/><path fill="#ffdf00" d="M 54 357.75 L 82.5 378 C 93.75 386.25 109.5 387 117 375 L 153 313.5 L 135 301.5 L 100.5 357 C 98.25 360.75 94.5 361.5 91.5 359.25 L 66.75 342 C 63 340.5 61.5 335.25 64.5 333 L 99 278.25 L 81.75 268.5 L 46.5 324 C 38.25 338.25 42 349.5 54 357.75 Z M 54 357.75 " fill-opacity="1" fill-rule="nonzero"/><path fill="#ffdf00" d="M 189 280.5 L 172.5 213 L 215.25 226.5 L 192 248.25 L 199.5 269.25 L 261.75 217.5 L 165 186.75 C 157.5 184.5 145.5 194.25 147 202.5 L 170.25 296.25 Z M 189 280.5 " fill-opacity="1" fill-rule="nonzero"/><path fill="#ffdf00" d="M 303.75 192 L 289.5 162 L 315.75 148.5 L 353.25 168.75 L 378 156.75 L 340.5 138 C 349.5 130.5 356.25 117 348.75 105 L 345.75 98.25 C 338.25 84 321.75 84 312 88.5 L 244.5 123 L 253.5 141.75 L 320.25 108 C 324 105.75 327 108.75 329.25 113.25 C 330.75 116.25 329.25 119.25 327 120 L 260.25 153 L 285 202.5 Z M 303.75 192 " fill-opacity="1" fill-rule="nonzero"/><path fill="#ffdf00" d="M 428.25 143.25 L 450.75 78 L 478.5 112.5 L 450 117 L 444.75 139.5 L 520.5 127.5 L 459 53.25 C 453.75 45.75 435 48 432.75 60 L 402 150 Z M 428.25 143.25 " fill-opacity="1" fill-rule="nonzero"/><path fill="#ffdf00" d="M 630.75 132.75 C 645 135.75 655.5 124.5 655.5 111.75 C 657 104.25 655.5 96.75 650.25 93 C 656.25 89.25 659.25 81.75 659.25 74.25 L 659.25 67.5 C 657.75 56.25 648 46.5 634.5 46.5 L 559.5 38.25 L 557.25 59.25 L 632.25 66.75 C 636.75 66.75 637.5 78 632.25 78.75 L 555 72 L 551.25 126.75 Z M 575.25 94.5 L 629.25 99 C 634.5 100.5 634.5 111.75 629.25 113.25 L 573.75 108.75 Z M 575.25 94.5 " fill-opacity="1" fill-rule="nonzero"/><path fill="#ffdf00" d="M 704.25 149.25 L 758.25 102.75 L 765 147 L 735 136.5 L 720.75 154.5 L 792 183 L 777 84 C 775.5 75.75 760.5 73.5 756 78 L 679.5 141.75 Z M 704.25 149.25 " fill-opacity="1" fill-rule="nonzero"/><path fill="#ffdf00" d="M 891.75 165 L 936.75 196.5 L 948.75 179.25 L 889.5 134.25 C 878.25 126.75 863.25 127.5 855.75 138 L 849 147 C 843 156.75 844.5 170.25 855 177.75 L 893.25 207.75 C 899.25 213 896.25 215.25 892.5 220.5 C 891.75 222 889.5 222 888 220.5 L 828.75 177 L 814.5 193.5 L 873.75 237 C 885.75 245.25 899.25 246.75 908.25 236.25 L 914.25 228 C 921.75 217.5 919.5 201.75 908.25 194.25 L 870.75 164.25 C 867 162 867 158.25 869.25 155.25 C 873.75 147 878.25 153 891.75 165 Z M 891.75 165 " fill-opacity="1" fill-rule="nonzero"/><path fill="#ffdf00" d="M 929.25 282.75 L 1001.25 269.25 L 986.25 309 L 966.75 286.5 L 942 293.25 L 993 349.5 L 1024.5 262.5 C 1028.25 254.25 1019.25 241.5 1008.75 243.75 L 910.5 265.5 Z M 929.25 282.75 " fill-opacity="1" fill-rule="nonzero"/><path fill="#ffdf00" d="M 1076.25 333.75 L 1005.75 372 L 1005 372 L 1005 378 L 1017 398.25 L 1086.75 351 Z M 1076.25 333.75 " fill-opacity="1" fill-rule="nonzero"/></svg>